<?xml version="1.0" encoding="utf-8"?>
<!-- Designed by Vexels.com - 2020 All Rights Reserved - https://vexels.com/terms-and-conditions/  -->
<svg version="1.1" id="Layer_1" xmlns="http://www.w3.org/2000/svg" xmlns:xlink="http://www.w3.org/1999/xlink" x="0px" y="0px"
	 viewBox="0 0 1200 1200" enable-background="new 0 0 1200 1200" xml:space="preserve">
<path fill="#503271" d="M1095.598,870.145c30.988-67.994,46.604-148.8,46.604-241.791c0-165.076-53.349-292-158.566-377.246
	c-46.18-37.548-101.233-66.028-164.683-85.362c27.376-17.616-19.469-73.511-19.469-73.511
	c-13.795,18.229-16.434,48.943-8.553,65.688c-59.412-15.045-125.614-22.625-198.309-22.625H425.076
	c-6.628-4.96-14.829-7.933-23.745-7.933c-8.915,0-17.117,2.973-23.745,7.933H230.478c-29.294,0-51.384,22.089-51.384,51.382v4.028
	c-0.158,0.003-0.316,0.017-0.474,0.019c-23.031,0.275-43.418-6.112-57.312-17.994c-12.847-10.989-20.183-31.152-10.628-43.657
	c3.346-4.374,8.814-7.197,15.008-7.743c0.196-0.017,0.387-0.012,0.581-0.024c-0.089,0.277-0.193,0.531-0.272,0.823
	c-7.423,27.665,50.339,23.123,50.339,23.123c-4.386-14.002-18.352-26.947-30.589-31.182c13.005-10.638,15.432-44.682,15.432-44.682
	c-22.275,3.467-45.466,29.656-35.942,42.157c-0.139,0.011-0.276,0.004-0.415,0.017c-8.929,0.787-16.923,5.001-21.932,11.557
	c-7.569,9.903-7.877,22.466-3.784,34.016C83.741,145.301,50,176.574,50,176.574c19.155,13.043,55.441,9.223,55.121-7.558
	c2.789,4.18,6.104,7.997,9.814,11.169c15.697,13.432,38.351,20.665,63.805,20.349c0.118-0.001,0.235-0.012,0.353-0.014v26.252
	c0,28.324,20.836,50.568,48.557,51.969l66.064,6.075c-0.958,8.517,0.785,17.4,5.633,25.261c2.041,3.309,4.505,6.192,7.255,8.668
	v661.161l-78.933,7.26c-27.734,1.374-48.576,23.335-48.576,51.311v40.75c0,29.294,22.09,51.384,51.384,51.384h341.771
	c185.363,0,327.778-42.185,423.289-125.384c33.237-28.953,60.87-62.815,82.86-101.431c18.327,17.205,71.602-7.919,71.602-7.919
	C1137.569,880.06,1113.632,870.1,1095.598,870.145z M1070.848,876.202c-24.118-13.538-57.959-6.922-78.61,15.962
	c-1.759,1.947-3.429,3.997-5.098,6.05c-2.634,3.233-5.201,6.295-8.01,8.886c-4.799-9.17-13.852-15.536-23.506-16.044
	c-6.353-0.319-13.057,2.244-17.894,6.905c-4.482,4.319-6.902,9.839-6.813,15.541c0.105,6.602,4.07,12.949,10.353,16.563
	c5.798,3.339,12.406,3.572,17.654,0.629c2.362-1.325,3.205-4.313,1.88-6.675c-1.328-2.369-4.326-3.199-6.675-1.88
	c-2.209,1.239-5.188,1.025-7.972-0.575c-3.253-1.871-5.386-5.095-5.434-8.214c-0.048-2.956,1.306-5.912,3.812-8.326
	c2.915-2.806,6.905-4.39,10.57-4.173c7.212,0.378,14.239,6.335,16.761,14.178c-0.01,0.85,0.188,1.711,0.641,2.499
	c1.419,6.856,0.105,14.834-3.77,22.303c-8.016,15.439-25.626,25.818-43.137,25.093c-5.871-0.227-11.7-1.539-17.868-2.931
	c-3.123-0.703-6.292-1.41-9.506-1.982c9.901-13.918,7.62-45.671,7.62-45.671c-20.907,6.406-39.671,33.599-31.835,46.037
	c-12.419,3.231-24.738,11.506-37.41,25.1c-3.161,3.39-6.238,6.931-9.217,10.356c-8.23,9.463-16.001,18.401-25.789,24.997
	c-4.315,2.908-9.015,5.216-13.943,6.94c5.46-15.937,0.279-42.307,0.279-42.307c-18.082,8.067-32.34,32.836-27.976,45.903
	c-9.383-0.64-18.619-3.101-26.86-7.392c0.532-7.961-1.287-16.155-5.794-23.465c-3.496-5.669-8.212-10.096-13.573-13.261
	c58.03-10.772,103.793-29.025,136.698-54.643c36.573-28.888,62.518-70.98,77.681-125.754c-0.524,2.347-0.837,4.503-0.837,6.362
	c0,21.938,17.784,39.722,39.722,39.722c21.938,0,39.723-17.784,39.723-39.722c0-5.333-2.358-12.917-5.912-21.331
	c5.488,7.301,10.859,13.151,15.469,15.832c18.966,11.026,43.279,4.589,54.305-14.377c11.026-18.966,4.589-43.279-14.377-54.305
	c-6.323-3.677-18.518-5.655-31.962-6.66c13.412-1.355,25.552-3.649,31.778-7.489c18.673-11.516,24.475-35.988,12.959-54.66
	c-11.516-18.673-35.988-24.475-54.661-12.959c-3.395,2.094-7.172,5.979-11.074,10.911c2.149-5.911,3.474-11.164,3.474-15.154
	c0-12.572-5.857-23.76-14.973-31.039c1.583-6.961,4.355-13.108,6.578-17.295c3.783-7.126,8.348-13.683,13.179-20.625
	c3.882-5.576,7.895-11.343,11.426-17.385c0.172-0.294,0.315-0.603,0.484-0.898c6.731-1.876,13.653-3.164,20.659-3.859
	c-26.676,25.511,35.46,82.602,35.46,82.602c14.138-24.81,11.629-63.983-1.936-81.407c3.73,0.644,7.436,1.396,11.069,2.386
	c1.545,0.42,3.084,0.872,4.629,1.323c6.229,1.823,12.674,3.708,19.573,3.77c0.102,0,0.201,0.002,0.3,0.002
	c2.416,0,4.744-0.297,6.972-0.793c1.629,18.919,2.453,38.434,2.453,58.548C1122.587,725.058,1105.221,807.907,1070.848,876.202z
	 M461.738,1110.997c-7.649-18.229-25.375-29.123-42.607-39.664c-5.794-3.547-11.787-7.212-17.131-11.036
	c-7.145-5.114-13.66-11.082-19.457-17.681c17.374-0.868,38.257-32.149,38.257-32.149c-18.398-6.99-45.766,0.382-52.105,12.592
	c-3.653-6.437-6.769-13.178-9.117-20.201c-0.045-0.134-0.115-0.25-0.17-0.378c1.817-13.485-0.43-27.569-6.438-39.763
	c19.675-2.369,34.933-19.092,34.933-39.406c0-5.333-2.358-12.917-5.912-21.331c5.488,7.301,10.859,13.151,15.47,15.832
	c18.966,11.026,43.279,4.589,54.305-14.377c11.026-18.966,4.589-43.279-14.377-54.305c-6.324-3.677-18.518-5.655-31.962-6.66
	c13.413-1.355,25.551-3.649,31.778-7.489c18.673-11.516,24.475-35.988,12.959-54.66c-11.515-18.673-35.988-24.475-54.66-12.959
	c-3.396,2.094-7.172,5.979-11.075,10.911c2.149-5.911,3.474-11.164,3.474-15.154c0-21.938-17.785-39.722-39.723-39.722
	c-8.145,0-15.672,2.508-21.965,6.723V616.829c3.785-0.799,7.522-2.025,11.217-3.69c0.279,0.083,0.567,0.151,0.867,0.184
	c21.706,2.356,46.92,6.273,69.373,17.472c22.932,11.435,39.695,29.607,45.997,49.851c3.943,12.677,2.209,28.981-8.77,34.223
	c-3.087,1.472-6.691,1.954-9.811,2.232c-11.001,0.977-20.25-0.562-27.455-4.591c-8.115-4.546-13.437-12.891-13.242-20.77
	c0.192-8.106,7.349-15.71,14.478-15.432c3.933,0.093,7.611,2.433,8.744,5.561c0.926,2.544,3.742,3.863,6.283,2.937
	c2.544-0.923,3.86-3.735,2.937-6.283c-2.5-6.889-9.788-11.831-17.728-12.023c-6.121-0.145-11.9,2.467-16.319,6.7
	c-4.85-21.435-48.576-1.901-48.576-1.901c9.305,12.358,29.477,19.457,40.826,16.177c-0.246,1.318-0.419,2.657-0.453,4.024
	c-0.284,11.592,6.883,23.197,18.261,29.566c7.282,4.077,16.01,6.13,26.012,6.13c2.302,0,4.671-0.109,7.103-0.326
	c3.758-0.335,8.645-0.996,13.163-3.151c16.128-7.7,19.206-28.962,13.913-45.988c-3.074-9.87-8.311-19.274-15.31-27.792
	c14.551-3.767,27.356-33.233,27.356-33.233c-16.624-3.102-38.591,7.197-42.398,18.474c-6.207-4.971-13.116-9.413-20.635-13.164
	c-19.887-9.915-41.448-14.39-61.162-17.032c8.647-6.581,17.112-15.675,25.492-27.411c2.353-3.296,4.664-6.666,6.979-10.044
	c4.387-6.402,8.862-12.867,13.701-18.911c2.034,25.902,59.594,45.021,59.594,45.021c2.611-27.282-16.842-61.136-35.619-66.537
	c22.011-12.144,51.729-8.388,69.86,9.089c0.939,0.907,2.149,1.34,3.359,1.352v409.743c-15.46-18.063-68.453-6.589-68.453-6.589
	c12.878,27.442,54.944,47.617,68.453,31.814v26.31h30.48c-1.075,1.377-2.098,2.81-3.001,4.364
	c-11.026,18.966-4.59,43.279,14.376,54.305c6.324,3.677,18.519,5.655,31.963,6.66c-13.414,1.355-25.553,3.649-31.779,7.489
	c-13.853,8.543-20.574,24.212-18.437,39.358H461.738z M322.096,1110.023c-4.519-4.146-6.719-9.82-7.207-16.035
	c17.617,22.724,50.231-26.153,50.231-26.153c-15.154-5.758-36.39-1.768-46.952,6.64c1.207-3.086,2.687-6.074,4.397-8.846
	c3.815-6.187,8.597-12.09,13.226-17.798c6.857-8.46,13.951-17.211,18.603-27.574c0.287-0.639,0.524-1.298,0.789-1.946
	c9.101,19.821,23.368,37.26,41.11,49.961c5.632,4.029,11.777,7.79,17.721,11.426c15.144,9.266,29.57,18.123,36.854,31.299H322.805
	C322.586,1110.662,322.405,1110.306,322.096,1110.023z M326.217,847.225c0.638-0.85,1.427-1.608,2.386-2.199
	c1.369-0.844,1.35-2.303-0.041-3.112c-0.931-0.541-1.701-1.244-2.345-2.031v-11.039c2.669-3.263,7.365-4.221,11.127-2.035
	c1.014,0.59,2.102-0.036,2.102-1.209c0-4.825,3.911-8.736,8.736-8.736s8.736,3.911,8.736,8.736c0,0.877,0.925,1.393,1.671,0.933
	c4.107-2.533,9.489-1.257,12.021,2.85c2.533,4.107,1.257,9.489-2.85,12.021c-1.369,0.844-1.35,2.303,0.04,3.112
	c4.171,2.425,5.587,7.772,3.162,11.943c-2.425,4.171-7.772,5.587-11.943,3.162c-1.014-0.59-2.102,0.037-2.102,1.209
	c0,4.825-3.912,8.736-8.736,8.736s-8.736-3.911-8.736-8.736c0-0.877-0.925-1.393-1.672-0.933c-3.885,2.396-8.882,1.35-11.557-2.244
	V847.225z M504.776,223.322c18.972,12.903,45.17,12.976,64.572,8.087c6.779-1.707,13.385-3.957,19.86-6.458
	c-6.244,23.883,43.871,20.168,43.871,20.168c-3.786-12.273-15.988-23.653-26.673-27.357c1.36-0.598,2.718-1.197,4.068-1.793
	c10.49-4.634,21.335-9.424,32.302-12.855c28.269-8.838,54.17-5.544,69.287,8.816c7.071,6.719,11.93,18.204,7.008,26.253
	c-1.453,2.377-3.831,4.586-7.272,6.757c-3.052,1.922-10.874,6.102-17.565,3.395c-2.445-0.988-4.537-3.545-5.201-6.363
	c-0.316-1.342-0.428-3.247,0.849-4.693c1.791-2.03,1.596-5.13-0.434-6.921c-2.034-1.794-5.13-1.596-6.921,0.434
	c-3.113,3.529-4.221,8.427-3.039,13.434c1.405,5.951,5.648,11.009,11.068,13.201c2.611,1.057,5.45,1.576,8.422,1.576
	c5.762,0,12.02-1.96,18.057-5.769c4.063-2.565,7.089-5.335,9.305-8.39c10.577,12.938,46.338-4.279,46.338-4.279
	c-9.936-12.44-31.195-18.986-42.238-14.697c-0.493-2.851-1.392-5.665-2.611-8.362c0.078,0,0.155,0.006,0.233,0.006
	c28.752,0,58.589-14.152,75.411-35.881c64.271,18.354,119.719,46.123,165.874,83.181c-0.191,1.568-0.314,3.157-0.314,4.777
	c0,5.333,2.358,12.917,5.912,21.331c-5.488-7.301-10.859-13.151-15.47-15.832c-11.107-6.457-24.033-6.886-35.065-2.355
	c-14.566-18.184-35.833-30.83-58.912-34.555c-12.697-2.048-24.199-1.194-34.188,2.546c-1.791,0.671-3.499,1.462-5.163,2.313
	c4.896-14.321-18.136-39.853-18.136-39.853c-11.791,16.824-8.591,49.258,6.672,48.121c-3.946,3.919-7.063,8.47-9.034,13.484
	c-4.409,11.206-2.685,24.097,4.39,32.84c5.402,6.68,13.75,10.411,21.926,10.411c3.639,0,7.241-0.737,10.535-2.284
	c6.988-3.277,12.042-9.822,13.191-17.081c1.261-7.98-2.324-16.103-8.926-20.216c-2.289-1.429-5.315-0.734-6.755,1.568
	c-1.43,2.299-0.728,5.323,1.571,6.755c3.196,1.994,5.057,6.351,4.425,10.361c-0.639,4.027-3.649,7.849-7.668,9.736
	c-6.631,3.106-15.707,0.729-20.675-5.416c-4.814-5.952-5.976-15.228-2.889-23.083c3.177-8.069,10.644-14.974,19.975-18.469
	c8.371-3.133,18.191-3.825,29.186-2.048c20.163,3.254,38.785,14.103,51.803,29.741c-4.166,3.108-7.789,7.086-10.566,11.863
	c-11.026,18.966-4.59,43.279,14.376,54.305c6.325,3.677,18.519,5.655,31.963,6.66c-13.413,1.355-25.552,3.649-31.779,7.489
	c-18.673,11.516-24.474,35.988-12.959,54.66c11.516,18.672,35.988,24.474,54.661,12.959c3.395-2.094,7.172-5.979,11.075-10.911
	c-2.149,5.911-3.474,11.165-3.474,15.154c0,21.938,17.784,39.722,39.722,39.722c6.367,0,12.363-1.536,17.698-4.199
	c8.455,30.702,5.039,64.744-10.034,92.799c-0.779,0.729-1.296,1.689-1.479,2.74c-0.167,0.293-0.31,0.598-0.48,0.889
	c-2.026,3.465-4.266,6.885-6.552,10.255c-2.175-20.899-34.449-47.413-34.449-47.413c-13.53,27.156-1.038,74.371,21.563,66.423
	c-1.881,2.962-3.708,5.975-5.365,9.096c-2.965,5.585-5.13,11.149-6.629,16.606c-4.907-2.169-10.323-3.397-16.033-3.397
	c-9.255,0-17.737,3.196-24.48,8.506c-6.703-111.452-35.682-197.225-86.422-255.404c-57.478-65.903-146.121-99.319-263.468-99.319
	h-87.945c-3.339-5.607-8.095-10.475-14.137-13.988c-6.324-3.677-18.518-5.655-31.962-6.66c13.413-1.355,25.551-3.649,31.778-7.489
	C496.74,235.011,501.579,229.54,504.776,223.322z M1029.199,554.287c5.399-12.141,8.912-25.097,10.525-38.319
	c0.155,0.227,0.28,0.452,0.45,0.679c17.56,23.49,50.478-25.863,50.478-25.863c-16.733-6.358-40.887-0.833-49.891,9.405
	c0.11-13.757-1.783-27.524-5.746-40.662c8.237-7.278,13.459-17.891,13.459-29.746c0-5.333-2.358-12.917-5.912-21.331
	c5.488,7.301,10.859,13.151,15.469,15.832c9.617,5.591,20.592,6.649,30.521,3.892c15.509,39.89,25.728,83.851,30.63,131.754
	c-1.998,0.568-4.08,0.864-6.042,0.864c-0.064,0-0.128-0.002-0.188-0.002c-5.542-0.049-11.062-1.665-16.911-3.376
	c-1.599-0.468-3.199-0.937-4.802-1.373C1071.238,550.595,1049.595,550.058,1029.199,554.287z M989.133,348.384
	c-4.171-2.425-5.586-7.772-3.161-11.943c2.425-4.171,7.772-5.587,11.943-3.162c1.014,0.59,2.102-0.037,2.102-1.209
	c0-4.825,3.911-8.736,8.735-8.736c4.825,0,8.736,3.911,8.736,8.736c0,0.877,0.925,1.393,1.672,0.933
	c4.107-2.533,9.489-1.257,12.021,2.85c2.533,4.107,1.257,9.489-2.85,12.021c-1.37,0.844-1.35,2.303,0.04,3.112
	c4.171,2.425,5.587,7.772,3.162,11.943c-2.425,4.171-7.772,5.587-11.943,3.162c-1.014-0.59-2.102,0.037-2.102,1.209
	c0,4.825-3.911,8.736-8.736,8.736c-4.825,0-8.735-3.911-8.735-8.736c0-0.877-0.925-1.394-1.672-0.933
	c-4.106,2.533-9.488,1.257-12.021-2.85c-2.532-4.107-1.256-9.489,2.85-12.021C990.543,350.652,990.524,349.193,989.133,348.384z
	 M947.373,731.819c-4.171-2.425-5.586-7.772-3.161-11.943c2.425-4.171,7.772-5.587,11.943-3.162c1.014,0.59,2.102-0.036,2.102-1.209
	c0-4.825,3.911-8.736,8.735-8.736c4.825,0,8.736,3.911,8.736,8.736c0,0.877,0.925,1.394,1.672,0.933
	c4.107-2.533,9.489-1.257,12.021,2.85c2.533,4.107,1.257,9.489-2.85,12.021c-1.37,0.844-1.35,2.303,0.04,3.112
	c4.171,2.425,5.587,7.772,3.162,11.943c-2.425,4.171-7.772,5.587-11.943,3.162c-1.014-0.59-2.102,0.036-2.102,1.209
	c0,4.825-3.911,8.736-8.736,8.736c-4.825,0-8.735-3.911-8.735-8.736c0-0.877-0.925-1.394-1.672-0.933
	c-4.106,2.533-9.488,1.257-12.021-2.85c-2.532-4.107-1.256-9.489,2.85-12.021C948.783,734.086,948.764,732.628,947.373,731.819z
	 M930.745,798.062c-0.516,1.42-0.979,2.797-1.393,4.133c0.31-1.183,0.621-2.365,0.921-3.56
	C930.431,798.439,930.586,798.262,930.745,798.062z M570.933,979.207h-57.064V570.898c19.262,17.973,54.841,29.795,54.841,29.795
	c2.728-28.512-16.036-63.45-35.647-72.968c10.244-9.721,17.948-27.442,17.948-27.442c-12.788-2.386-28.727,3.162-37.143,10.98V286.7
	h78.753c111.428,0,195.098,31.154,248.685,92.597c55.149,63.234,83.112,162.287,83.112,294.409
	c0,116.426-28.985,198.354-86.151,243.509C785.468,958.321,695.487,979.207,570.933,979.207z M605.698,1062.104
	c-4.171-2.425-5.587-7.772-3.162-11.943c2.425-4.171,7.772-5.587,11.943-3.162c1.014,0.59,2.102-0.036,2.102-1.209
	c0-4.825,3.911-8.736,8.736-8.736s8.736,3.911,8.736,8.736c0,0.877,0.925,1.394,1.671,0.933c4.107-2.533,9.489-1.257,12.021,2.85
	c2.533,4.107,1.257,9.489-2.85,12.021c-1.369,0.844-1.35,2.303,0.04,3.112c4.171,2.425,5.587,7.772,3.162,11.943
	c-2.425,4.171-7.772,5.587-11.943,3.162c-1.014-0.59-2.102,0.036-2.102,1.209c0,4.825-3.912,8.736-8.736,8.736
	s-8.736-3.911-8.736-8.736c0-0.877-0.925-1.393-1.672-0.933c-4.106,2.533-9.489,1.257-12.021-2.85
	c-2.532-4.107-1.257-9.489,2.85-12.021C607.108,1064.372,607.09,1062.913,605.698,1062.104z M793.122,178.77
	c-16.823,19.314-45.499,31.011-71.871,28.607c-0.785-0.89-1.589-1.755-2.434-2.557c-17.731-16.847-47.252-20.986-78.966-11.067
	c-11.499,3.595-22.603,8.5-33.339,13.244c-12.783,5.648-26.003,11.488-39.558,14.901c-4.167,1.049-8.688,1.838-13.368,2.294
	c10.483-12.878,12.542-41.756,12.542-41.756c-21.368,3.326-43.589,27.564-36.959,40.569c-7.597-1.622-14.802-4.589-20.902-9.293
	c2.153-9.73,0.693-20.271-4.952-29.424c-11.515-18.673-35.988-24.475-54.66-12.959c-3.396,2.094-7.172,5.979-11.075,10.911
	c2.149-5.911,3.474-11.164,3.474-15.154c0-4.25-0.683-8.336-1.919-12.175h153.487C666.582,154.912,733.52,162.913,793.122,178.77z
	 M381.712,245.882c-4.171-2.425-5.587-7.772-3.162-11.943c2.425-4.171,7.772-5.587,11.944-3.162c1.014,0.59,2.102-0.037,2.102-1.209
	c0-4.825,3.911-8.736,8.736-8.736s8.736,3.911,8.736,8.736c0,0.877,0.925,1.394,1.671,0.933c4.107-2.533,9.489-1.257,12.021,2.85
	c2.533,4.107,1.257,9.489-2.85,12.021c-1.369,0.844-1.35,2.303,0.04,3.112c4.171,2.425,5.587,7.772,3.162,11.943
	c-2.425,4.171-7.772,5.587-11.944,3.162c-1.014-0.59-2.102,0.036-2.102,1.209c0,4.825-3.912,8.736-8.736,8.736
	s-8.736-3.911-8.736-8.736c0-0.877-0.925-1.394-1.672-0.933c-4.106,2.533-9.489,1.257-12.021-2.85
	c-2.532-4.107-1.257-9.489,2.85-12.021C383.122,248.149,383.103,246.69,381.712,245.882z M198.708,186.68
	c0-18.407,13.361-31.767,31.77-31.767h133.049c-1.235,3.839-1.918,7.925-1.918,12.175c0,5.333,2.358,12.917,5.912,21.331
	c-5.488-7.301-10.859-13.151-15.47-15.832c-16.622-9.664-37.35-5.91-49.642,7.934c-5.739-3.015-12.338-5.022-19.395-5.735
	c-14.615-1.48-28.981,2.083-41.665,5.228l-1.507,0.375c-13.483,3.345-27.277,6.729-41.133,8.68V186.68z M229,259.168
	c-17.641-0.71-30.292-14.114-30.292-32.396v-27.805c14.776-1.979,29.306-5.541,43.496-9.061l1.507-0.374
	c1.444-0.358,2.913-0.722,4.4-1.083c-8.262,13.865-10.562,36.968-10.562,36.968c22.351-2.839,46.254-28.339,37.128-41.11
	c2.458-0.05,4.913-0.013,7.347,0.233c4.709,0.477,9.946,1.848,14.81,4.191c-9.657,18.686-3.097,41.846,15.289,52.535
	c6.324,3.677,18.519,5.654,31.963,6.66c-13.414,1.355-25.553,3.649-31.779,7.489c-4.519,2.786-8.265,6.343-11.213,10.381
	L229,259.168z M354.009,323.036c3.396-2.094,7.172-5.979,11.075-10.911c-2.149,5.911-3.474,11.165-3.474,15.154
	c0,21.938,17.784,39.722,39.722,39.722c21.938,0,39.723-17.784,39.723-39.722c0-0.43-0.04-0.897-0.07-1.356
	c9.05,13.387,17.222,28.346,21.786,44.811c3.47,12.513,4.368,25.081,2.863,36.728c-5.644-15.644-30.295-32.098-30.295-32.098
	c-9.075,23.875,6.611,63.236,25.253,49.304c0.411-0.307,0.75-0.63,1.117-0.947c-2.116,5.799-4.922,11.185-8.449,15.961
	c-8.265,11.201-23.34,21.072-38.396,17.873c-7.126-1.513-13.788-7.228-16.974-14.558c-1.462-3.365-3.355-9.874,0.163-16.057
	c1.781-1.946,4.683-2.324,6.889-2.002c2.279,0.33,5.095,1.599,6.171,4.169c1.044,2.498,3.92,3.678,6.414,2.632
	c2.5-1.044,3.678-3.917,2.634-6.415c-2.254-5.392-7.416-9.166-13.811-10.093c-6.385-0.932-12.416,1.223-16.106,5.753
	c-0.15,0.18-0.284,0.37-0.402,0.571c-4.415,7.338-4.76,16.579-0.948,25.35c1.039,2.389,2.353,4.623,3.852,6.701
	c-27.09-6.631-55.307,53.284-55.307,53.284c33.658,7.338,81.78-18.688,69.891-41.544c1.788,0.756,3.614,1.401,5.498,1.802
	c2.595,0.551,5.236,0.819,7.892,0.819c14.737,0,29.955-8.267,40.433-22.461c14.807-20.057,18.944-48.989,11.068-77.394
	c-4.831-17.421-13.301-33.078-22.666-47.023c0.354,0.236,0.712,0.489,1.058,0.69c14.153,8.228,31.278,6.722,43.643-2.449v206.765
	c-21.808-18.136-55.217-21.166-79.707-6.636c-17.08,10.136-28.365,26.601-39.277,42.526c-2.279,3.325-4.552,6.642-6.87,9.889
	c-0.51,0.714-1.018,1.383-1.528,2.075c-0.496-14.161-8.923-31.862-8.923-31.862c-16.901,13.386-23.073,47.612-5.95,49.063
	c-8.518,8.113-17.071,13.268-25.782,15.567V328.293C335.486,329.943,345.365,328.367,354.009,323.036z M198.708,1079.227v-40.75
	c0-17.913,12.656-31.046,30.302-31.737l97.207-8.941v-41.448c4.55,3.035,9.756,5.128,15.367,6.07
	c9.851,15.86,11.528,36.75,3.865,53.819c-4.128,9.194-10.516,17.073-17.278,25.415c-4.38,5.404-8.867,10.999-12.765,17.018
	c-5.159-33.62-73.195-6.621-73.195-6.621c14.391,20.899,48.54,33.245,64.717,25.499c-3.066,11.662-2.589,23.956,3.367,33.446
	h-79.818C212.07,1110.997,198.708,1097.636,198.708,1079.227z M982.654,990.438c-62.142,54.132-145.488,90.18-248.791,107.849
	c-1.594-11.7-8.335-22.57-19.337-28.967c-6.324-3.677-18.518-5.655-31.962-6.66c13.413-1.355,25.551-3.649,31.778-7.489
	c8.241-5.082,13.965-12.69,16.81-21.207c10.467,4.992,22.037,7.57,33.634,7.57c14.906,0,29.808-4.16,42.288-12.569
	c10.861-7.32,19.426-17.169,27.711-26.696c0.749-0.861,1.519-1.735,2.279-2.606c4.187,20.349,52.74,14.302,52.74,14.302
	c-5.607-15.401-22.818-29.001-36.149-31.284c10.271-8.708,20.132-13.317,29.904-13.975c7.158-0.504,14.389,1.137,22.015,2.854
	c6.331,1.427,12.875,2.902,19.65,3.164c21.444,0.83,42.361-11.384,52.216-30.377c4.627-8.912,6.312-18.569,4.934-27.234
	c4.862-3.631,8.7-8.204,12.369-12.71c1.564-1.922,3.129-3.847,4.773-5.67c17.367-19.241,46.668-25.208,66.621-14.002
	c-0.018,0.162,0.037,0.325,0.035,0.489C1044.508,925.667,1016.666,960.811,982.654,990.438z"/>
</svg>
